<?xml version="1.0" standalone="no"?>
<!DOCTYPE svg PUBLIC "-//W3C//DTD SVG 20010904//EN"
 "http://www.w3.org/TR/2001/REC-SVG-20010904/DTD/svg10.dtd">
<svg version="1.0" xmlns="http://www.w3.org/2000/svg"
 width="300.000000pt" height="300.000000pt" viewBox="0 0 300.000000 300.000000"
 preserveAspectRatio="xMidYMid meet">
<metadata>
Created by potrace 1.11, written by Peter Selinger 2001-2013
</metadata>
<g transform="translate(0.000000,300.000000) scale(0.100000,-0.100000)"
fill="#000000" stroke="none">
<path d="M862 2726 c71 -209 82 -344 38 -469 -11 -30 -48 -115 -84 -188 -113
-234 -142 -362 -124 -549 9 -86 36 -209 51 -227 5 -7 7 -13 3 -13 -13 0 68
-158 121 -238 72 -106 174 -200 282 -259 l85 -45 -40 48 c-131 158 -204 336
-231 554 -14 124 -5 308 22 430 3 14 8 36 11 50 14 72 77 227 126 310 73 125
218 286 312 345 25 16 45 30 43 31 -1 1 -66 30 -145 63 -197 84 -333 154 -425
217 -43 30 -80 54 -81 54 -2 0 14 -51 36 -114z"/>
<path d="M2045 2765 c-282 -70 -655 -356 -830 -635 -128 -204 -179 -387 -177
-640 2 -398 143 -693 355 -744 l28 -7 -3 -369 -3 -370 42 0 41 0 0 361 c0 198
2 362 4 364 1 1 37 5 78 9 363 31 625 372 614 800 -5 170 -22 290 -65 456 -69
260 -85 400 -64 555 9 62 52 202 65 210 17 11 11 21 -12 22 -13 0 -45 -5 -73
-12z"/>
</g>
</svg>
